Coordinates
version=1
nRows=18
nColumns=22
inDegrees=yes

Units are S.I. units (second, meters, Newtons, ...)
If the header above contains a line with 'inDegrees', this indicates whether rotational values are in degrees (yes) or radians (no).

endheader
time	pelvis_tilt	pelvis_list	pelvis_rotation	pelvis_tx	pelvis_ty	pelvis_tz	hip_flexion_r	hip_adduction_r	hip_rotation_r	knee_angle_r	ankle_angle_r	subtalar_angle_r	hip_flexion_l	hip_adduction_l	hip_rotation_l	knee_angle_l	ankle_angle_l	subtalar_angle_l	lumbar_extension	lumbar_bending	lumbar_rotation
      1.27000000	     -1.26757758	     -5.20948482	     -2.41402968	     -1.47318739	      1.01662677	     -0.19629102	      0.13984067	      9.94979728	    -11.01877362	     -8.80737690	     11.51313468	     -2.90367259	     18.01626892	     -5.43753982	      0.61703433	    -38.03981140	     14.14885970	     -1.99173420	    -15.93105909	      4.35552637	      4.24443125
      1.28000000	     -1.29981396	     -5.13804826	     -2.31701126	     -1.47170141	      1.01660143	     -0.19591898	      0.04578452	      9.90658619	    -11.11934774	     -8.72842612	     11.57971896	     -2.87051240	     18.77266515	     -5.20996004	      0.87621877	    -38.84586891	     14.27554443	     -2.10935688	    -16.05246161	      4.21662512	      4.43701082
      1.29000000	     -1.32521445	     -5.04233698	     -2.24962382	     -1.47013649	      1.01661513	     -0.19555738	     -0.04761712	      9.83277052	    -11.16044274	     -8.67795624	     11.66985738	     -2.84276068	     19.48704920	     -4.95391172	      1.09172310	    -39.48380057	     14.36579340	     -2.20357943	    -16.18859120	      4.04830114	      4.65476212
      1.30000000	     -1.37067995	     -4.92364725	     -2.21457821	     -1.46847983	      1.01662338	     -0.19518741	     -0.10745347	      9.72923877	    -11.20842993	     -8.65907855	     11.73264478	     -2.81171105	     20.18940200	     -4.68732219	      1.22693248	    -39.94852854	     14.37825778	     -2.28211253	    -16.30420305	      3.84772543	      4.92077015
      1.31000000	     -1.40575684	     -4.80206548	     -2.19353148	     -1.46672383	      1.01664658	     -0.19483052	     -0.18120561	      9.62050531	    -11.21907492	     -8.64862690	     11.80861981	     -2.78663733	     20.85537897	     -4.43355242	      1.29216531	    -40.25019352	     14.33764950	     -2.32963703	    -16.43601270	      3.64444463	      5.19323175
      1.32000000	     -1.44115299	     -4.67739016	     -2.18216262	     -1.46488158	      1.01666397	     -0.19449062	     -0.25241695	      9.50658792	    -11.20748713	     -8.65263035	     11.88644501	     -2.76719823	     21.49446473	     -4.18782589	      1.31122832	    -40.38264856	     14.22831191	     -2.34837476	    -16.57374348	      3.43757760	      5.47489273
      1.33000000	     -1.47667714	     -4.55444292	     -2.17522774	     -1.46294942	      1.01666527	     -0.19418645	     -0.32327105	      9.39190717	    -11.17278899	     -8.66866452	     11.97140079	     -2.75532322	     22.10909110	     -3.95486282	      1.29249770	    -40.35120398	     14.04606504	     -2.34164903	    -16.71659914	      3.23872745	      5.76365998
      1.34000000	     -1.51885432	     -4.43571532	     -2.17160502	     -1.46092800	      1.01663206	     -0.19390091	     -0.38714208	      9.28108278	    -11.12381298	     -8.69540227	     12.06519241	     -2.75083253	     22.70716787	     -3.73817932	      1.24251734	    -40.16175727	     13.79032901	     -2.31135028	    -16.85745085	      3.04533337	      6.05972219
      1.35000000	     -1.56866858	     -4.32446424	     -2.16809007	     -1.45881503	      1.01654955	     -0.19364679	     -0.44312768	      9.17651157	    -11.06807109	     -8.73309965	     12.16920605	     -2.75383151	     23.29398078	     -3.53850468	      1.16956888	    -39.82862201	     13.47119878	     -2.25547331	    -16.99409109	      2.86634056	      6.35909110
      1.36000000	     -1.64598322	     -4.21883030	     -2.17285812	     -1.45659972	      1.01637735	     -0.19342239	     -0.46793771	      9.07513238	    -11.01260188	     -8.78756192	     12.30366776	     -2.76894769	     23.88659301	     -3.35312700	      1.07887989	    -39.35680113	     13.11724986	     -2.14642719	    -17.10031356	      2.70026392	      6.67164889
      1.37000000	     -1.71149349	     -4.13564559	     -2.16062709	     -1.45430102	      1.01617792	     -0.19323793	     -0.50915916	      8.99654820	    -10.97454058	     -8.84427784	     12.42242057	     -2.78796518	     24.45170386	     -3.18717007	      1.01027301	    -38.76576813	     12.67172433	     -2.02768476	    -17.22829665	      2.56548040	      6.96644832
      1.38000000	     -1.78741173	     -4.06660020	     -2.14597694	     -1.45191612	      1.01590460	     -0.19308575	     -0.53599778	      8.92988397	    -10.95082683	     -8.91843601	     12.55778430	     -2.81632821	     25.01014025	     -3.03342315	      0.95900152	    -38.06763016	     12.17548311	     -1.87666205	    -17.34924765	      2.45321086	      7.26007705
      1.39000000	     -1.85126798	     -4.03130252	     -2.11739815	     -1.44945174	      1.01559460	     -0.19296143	     -0.57834358	      8.89848272	    -10.94138242	     -8.99838588	     12.68105119	     -2.84547665	     25.54111271	     -2.90764386	      0.94493156	    -37.27790815	     11.60714873	     -1.73756068	    -17.49245427	      2.38368644	      7.53221149
      1.40000000	     -1.95874470	     -3.97296830	     -2.10357541	     -1.44685987	      1.01515313	     -0.19285815	     -0.57014318	      8.83707009	    -10.95296923	     -9.10158688	     12.86956608	     -2.90452535	     26.08890182	     -2.75651495	      0.94375149	    -36.39479593	     11.04447035	     -1.46100682	    -17.57772219	      2.29195801	      7.82717489
      1.41000000	     -2.04442153	     -3.96128741	     -2.08045975	     -1.44416289	      1.01469238	     -0.19276828	     -0.59504213	      8.82578216	    -10.95542908	     -9.20268349	     13.03493207	     -2.97694576	     26.60063742	     -2.64760876	      0.98887636	    -35.45561874	     10.42187384	     -1.09573117	    -17.69402560	      2.25726647	      8.09984183
      1.42000000	     -2.10116652	     -3.93187908	     -2.07279047	     -1.44127009	      1.01424762	     -0.19268190	     -0.66709703	      8.79147372	    -10.94954927	     -9.29786848	     13.22176922	     -3.03570775	     27.03725438	     -2.52136746	      1.04191603	    -34.43165138	      9.78203580	     -0.76400704	    -17.83323069	      2.19809618	      8.37708572
      1.43000000	     -2.13147193	     -3.88644860	     -2.09148340	     -1.43816488	      1.01381842	     -0.19259379	     -0.78098019	      8.73447691	    -10.91763052	     -9.39646157	     13.42502882	     -3.08740774	     27.40276976	     -2.38508335	      1.09518018	    -33.34149283	      9.14412076	     -0.40653293	    -17.98988702	      2.11718576	      8.66415782
      1.44000000	     -2.13029856	     -3.83269435	     -2.13270175	     -1.43480768	      1.01341550	     -0.19249985	     -0.96137004	      8.66730739	    -10.85258133	     -9.46514773	     13.63408532	     -3.13018504	     27.69755241	     -2.25096300	      1.13554637	    -32.20743652	      8.50802646	      0.04194627	    -18.16420290	      2.02280698	      8.95853521
